<svg xmlns="http://www.w3.org/2000/svg" viewBox="0 0 160 120" role="img">
  <defs>
    <filter id="rough" x="-5%" y="-5%" width="110%" height="110%">
      <feTurbulence type="fractalNoise" baseFrequency="0.05" numOctaves="3" seed="7" result="n"/>
      <feDisplacementMap in="SourceGraphic" in2="n" scale="2.2" xChannelSelector="R" yChannelSelector="G"/>
    </filter>
    <filter id="bleed" x="-10%" y="-10%" width="120%" height="120%">
      <feTurbulence type="fractalNoise" baseFrequency="0.035" numOctaves="2" seed="3" result="n"/>
      <feDisplacementMap in="SourceGraphic" in2="n" scale="5" xChannelSelector="R" yChannelSelector="G"/>
      <feGaussianBlur stdDeviation="0.6"/>
    </filter>
    <filter id="wash" x="-20%" y="-20%" width="140%" height="140%"><feGaussianBlur stdDeviation="2.4"/></filter>
    <filter id="mist" x="-20%" y="-20%" width="140%" height="140%"><feGaussianBlur stdDeviation="7"/></filter>
    <radialGradient id="paper" cx="50%" cy="45%" r="75%">
      <stop offset="0" stop-color="#F7F2E7"/><stop offset="1" stop-color="#EAE2D2"/>
    </radialGradient>
    <pattern id="grain" width="6" height="6" patternUnits="userSpaceOnUse">
      <circle cx="1" cy="1" r=".5" fill="#1E1B18" opacity=".05"/><circle cx="4" cy="4" r=".4" fill="#1E1B18" opacity=".04"/>
    </pattern>
  </defs>
  <rect width="160" height="120" fill="url(#paper)"/>
  <rect width="160" height="120" fill="url(#grain)"/>

  <ellipse cx="82" cy="104" rx="40" ry="5" fill="#1E1B18" opacity=".14" filter="url(#wash)"/>
  <path d="M78 102 Q74 82 66 62" stroke="#1E1B18" stroke-width="5" stroke-linecap="round" fill="none" filter="url(#rough)"/>
  <path d="M28 52 Q40 24 82 20 Q124 22 136 48 Q112 60 82 62 Q50 62 28 52 Z" fill="#1E1B18" opacity=".88" filter="url(#rough)"/>
  <path d="M40 50 Q60 34 84 32 Q112 34 128 48" fill="none" stroke="#F7F2E7" stroke-width="1.6" opacity=".7"/>
  <path d="M50 54 Q70 44 86 44 Q108 44 122 52" fill="none" stroke="#F7F2E7" stroke-width="1.2" opacity=".5"/>
  <path d="M34 54 Q52 66 82 66 Q112 66 132 52" fill="none" stroke="#1E1B18" stroke-width="1.4"/>
  <path d="M96 60 Q110 56 118 64 Q126 72 116 78 Q104 78 96 66 Z" fill="#1E1B18" opacity=".7" filter="url(#rough)"/>

  <g transform="translate(140 100)">
    <rect x="-9" y="-9" width="18" height="18" rx="1.5" fill="#B03A2B" opacity=".92" filter="url(#rough)"/>
    <text x="0" y="5" text-anchor="middle" font-size="12" font-family="'Songti SC','Noto Serif CJK SC',serif" fill="#F7F2E7">芝</text>
  </g>
</svg>
