<svg xmlns="http://www.w3.org/2000/svg" viewBox="0 0 600 900" width="600" height="900">
<!-- 图鉴 base figure · profile · 仿宋天圣针灸铜人 — no text, no points: the marks are the codex entry's (tools/mannequin.py) -->
<rect width="600" height="900" fill="#f4eee1"/>
<path d="M284.0 176.0 C276.3 182.3 287.7 201.7 284.0 214.0 C280.3 226.3 268.0 235.7 262.0 250.0 C256.0 264.3 250.0 283.3 248.0 300.0 C246.0 316.7 248.3 333.3 250.0 350.0 C251.7 366.7 257.0 383.3 258.0 400.0 C259.0 416.7 255.3 433.3 256.0 450.0 C256.7 466.7 258.7 484.0 262.0 500.0 C265.3 516.0 272.7 529.3 276.0 546.0 C279.3 562.7 281.0 577.7 282.0 600.0 C283.0 622.3 280.7 653.3 282.0 680.0 C283.3 706.7 288.3 732.3 290.0 760.0 C291.7 787.7 298.3 826.7 292.0 846.0 C285.7 865.3 258.3 868.3 252.0 876.0 C245.7 883.7 238.3 889.3 254.0 892.0 C269.7 894.7 332.0 899.7 346.0 892.0 C360.0 884.3 339.7 868.0 338.0 846.0 C336.3 824.0 335.3 784.3 336.0 760.0 C336.7 735.7 341.3 720.0 342.0 700.0 C342.7 680.0 337.7 656.7 340.0 640.0 C342.3 623.3 350.7 615.3 356.0 600.0 C361.3 584.7 370.0 564.7 372.0 548.0 C374.0 531.3 371.7 516.3 368.0 500.0 C364.3 483.7 352.0 468.3 350.0 450.0 C348.0 431.7 353.0 411.7 356.0 390.0 C359.0 368.3 367.3 343.0 368.0 320.0 C368.7 297.0 365.7 270.0 360.0 252.0 C354.3 234.0 339.0 224.7 334.0 212.0 C329.0 199.3 338.3 182.0 330.0 176.0 C321.7 170.0 291.7 169.7 284.0 176.0 Z" fill="#e8dcc4" stroke="#3a3026" stroke-width="3.2" stroke-linejoin="round" stroke-linecap="round"/>
<path d="M338.0 190.0 C340.0 200.0 347.7 228.3 350.0 250.0 C352.3 271.7 353.7 296.7 352.0 320.0 C350.3 343.3 342.7 368.3 340.0 390.0 C337.3 411.7 334.0 430.0 336.0 450.0 C338.0 470.0 348.7 494.0 352.0 510.0 C355.3 526.0 355.3 540.0 356.0 546.0" fill="none" stroke="#9b8a70" stroke-width="2" stroke-linecap="round" stroke-dasharray="10 9"/>
<path d="M300.0 46.0 C313.0 45.7 333.3 49.0 344.0 58.0 C354.7 67.0 361.0 85.3 364.0 100.0 C367.0 114.7 366.0 133.0 362.0 146.0 C358.0 159.0 349.7 171.0 340.0 178.0 C330.3 185.0 313.7 187.7 304.0 188.0 C294.3 188.3 289.0 186.3 282.0 180.0 C275.0 173.7 267.3 158.7 262.0 150.0 C256.7 141.3 253.3 133.3 250.0 128.0 C246.7 122.7 242.3 121.3 242.0 118.0 C241.7 114.7 246.7 113.3 248.0 108.0 C249.3 102.7 247.0 94.0 250.0 86.0 C253.0 78.0 257.7 66.7 266.0 60.0 C274.3 53.3 287.0 46.3 300.0 46.0 Z" fill="#e8dcc4" stroke="#3a3026" stroke-width="3.2" stroke-linejoin="round" stroke-linecap="round"/>
<path d="M296.0 232.0 C301.3 222.0 326.0 220.3 334.0 230.0 C342.0 239.7 343.3 268.3 344.0 290.0 C344.7 311.7 341.0 338.3 338.0 360.0 C335.0 381.7 329.3 400.0 326.0 420.0 C322.7 440.0 318.7 461.7 318.0 480.0 C317.3 498.3 324.0 518.7 322.0 530.0 C320.0 541.3 310.3 549.7 306.0 548.0 C301.7 546.3 297.0 533.0 296.0 520.0 C295.0 507.0 298.3 488.3 300.0 470.0 C301.7 451.7 304.0 430.0 306.0 410.0 C308.0 390.0 312.7 370.0 312.0 350.0 C311.3 330.0 304.7 309.7 302.0 290.0 C299.3 270.3 290.7 242.0 296.0 232.0 Z" fill="#e8dcc4" stroke="#3a3026" stroke-width="3.2" stroke-linejoin="round" stroke-linecap="round"/>
</svg>
